# xmcd
#
# Track frame offsets:
#	182
#	19560
#	34172
#	45047
#	63020
#	82000
#	99287
#	114657
#	134055
#	150037
#	163392
#	182107
#	199875
#	213535
#	233047
#
# Disc length: 3316 seconds
#
# Revision: 1
# Processed by: cddbd v1.4PL0 Copyright (c) Steve Scherf et al.
# Submitted via: audiograbber 1.80.04
#
DISCID=be0cf20f
DTITLE=Various Artist - New American Music Vol.1
DYEAR=1995
DGENRE=Country
TTITLE0=Trisha Yearwood - Walkaway Joe
TTITLE1=The Mavericks - Oh What A Thrill
TTITLE2=Tracy Byrd - The First Step
TTITLE3=Vince Gill - I Still Believe In You
TTITLE4=Nanci Griffith - From A Distance
TTITLE5=Marty Stuart - Love And Luck
TTITLE6=Mark Collie - Trouble's Coming Like A Train
TTITLE7=Reba McEntire and Linda Davis - Does He Love You
TTITLE8=Emmylou Harris - Crescent City
TTITLE9=Kelly Willis - Get Real
TTITLE10=Rodney Crowell - Let The Picture Paint Itself
TTITLE11=Trisha Yearwood - The Song Remembers When
TTITLE12=David Lee Murphy - Just Once
TTITLE13=Vince Gill - Whenever You Come Around
TTITLE14=Reba McEntire - Why Haven't I Heard From You
EXTD=
EXTT0=
EXTT1=
EXTT2=
EXTT3=
EXTT4=
EXTT5=
EXTT6=
EXTT7=
EXTT8=
EXTT9=
EXTT10=
EXTT11=
EXTT12=
EXTT13=
EXTT14=
PLAYORDER=
